<?xml version="1.0" encoding="UTF-8"?>
<svg id="Drawbridge" xmlns="http://www.w3.org/2000/svg" viewBox="0 0 24 24">
  <!-- Bridge tower left -->
  <rect x="2" y="8" width="2" height="14"/>
  <rect x="4" y="6" width="2" height="16"/>
  <rect x="6" y="4" width="2" height="18"/>
  <rect x="8" y="2" width="2" height="20"/>
  <rect x="10" y="1" width="2" height="21"/>
  
  <!-- Bridge tower right -->
  <rect x="12" y="1" width="2" height="21"/>
  <rect x="14" y="2" width="2" height="20"/>
  <rect x="16" y="4" width="2" height="18"/>
  <rect x="18" y="6" width="2" height="16"/>
  <rect x="20" y="8" width="2" height="14"/>
  
  <!-- Bridge span -->
  <rect x="2" y="14" width="20" height="2"/>
  
  <!-- Tower top details -->
  <rect x="8" y="1" width="8" height="1"/>
  <rect x="9" y="2" width="6" height="1"/>
  <rect x="10" y="3" width="4" height="1"/>
  <rect x="11" y="4" width="2" height="1"/>
  
  <!-- Gate opening -->
  <rect x="10" y="16" width="4" height="6" fill="white"/>
  <rect x="9" y="18" width="6" height="4" fill="white"/>
  <rect x="8" y="19" width="8" height="3" fill="white"/>
</svg> 